# xmcd
#
# Track frame offsets:
#	150
#	16199
#	32999
#	48074
#	68399
#	85649
#	100874
#	114449
#	131999
#	150749
#	164774
#	179849
#	194924
#	211649
#	230385
#	244709
#	262995
#	279333
#	295655
#	311190
#	329427
#
# Disc length: 4659 seconds
#
# Revision: 0
# Processed by: cddbd v1.5.2PL0 Copyright (c) Steve Scherf et al.
# Submitted via: dBpowerAMP V4.0
#
DISCID=29123115
DTITLE=stanley -  - 
DYEAR=1900
DGENRE=
TTITLE0=rtg
TTITLE1=ggf
TTITLE2=ggh
TTITLE3=ghh
TTITLE4=oeu
TTITLE5=sded
TTITLE6=fghg
TTITLE7=hgjh
TTITLE8=hhj
TTITLE9=jm,
TTITLE10=yrye
TTITLE11=rtj
TTITLE12=jre
TTITLE13=egrt
TTITLE14=tey
TTITLE15=eryr
TTITLE16=euu
TTITLE17=eue
TTITLE18=erw
TTITLE19=yruu
TTITLE20=rutr
EXTD=fkf
EXTT0=
EXTT1=
EXTT2=
EXTT3=
EXTT4=
EXTT5=
EXTT6=
EXTT7=
EXTT8=
EXTT9=
EXTT10=
EXTT11=
EXTT12=
EXTT13=
EXTT14=
EXTT15=
EXTT16=
EXTT17=
EXTT18=
EXTT19=
EXTT20=
PLAYORDER=
